<svg xmlns="http://www.w3.org/2000/svg" xmlns:xlink="http://www.w3.org/1999/xlink" version="1.1" x="0px" y="0px" viewBox="0 0 96 96" enable-background="new 0 0 96 96" xml:space="preserve"><g><path fill="#000000" d="M47.998,88.673L0.325,34.027L18.216,14.23L29.725,11h36.537l12.098,3.226l17.292,19.956L47.998,88.673z    M5.675,34.074l42.327,48.519L90.349,34.17L76.141,17.774L65.738,15H30.275l-9.866,2.77L5.675,34.074z"/></g><g><path fill="#000000" d="M23.55,46.001L2.14,35.806c-0.997-0.475-1.42-1.668-0.945-2.666c0.476-0.999,1.668-1.421,2.666-0.946   l20.59,9.805l47.107-0.086l20.602-9.552c0.997-0.466,2.191-0.03,2.655,0.973c0.465,1.002,0.029,2.191-0.974,2.656l-21.398,9.921   L23.55,46.001z"/></g><g><path fill="#000000" d="M64.67,28H31.307L18.074,17.571c-0.867-0.684-1.017-1.941-0.332-2.809c0.685-0.868,1.941-1.016,2.809-0.333   L32.693,24H63.33l12.715-9.596c0.884-0.667,2.137-0.489,2.802,0.392c0.665,0.881,0.49,2.136-0.392,2.801L64.67,28z"/></g><g><path fill="#000000" d="M48.002,88.568L21.754,44.129l8.419-18.942c0.448-1.01,1.629-1.463,2.64-1.015   c1.009,0.449,1.464,1.63,1.015,2.64l-7.581,17.058l21.752,36.827l21.755-36.912l-7.579-16.97c-0.45-1.008,0.002-2.191,1.011-2.642   c1.008-0.45,2.191,0.002,2.642,1.011l8.421,18.854L48.002,88.568z"/></g></svg>